<svg width="17" height="12" viewBox="0 0 17 12" fill="none" xmlns="http://www.w3.org/2000/svg">
<path d="M1.30664 4.99805C0.892427 4.99805 0.556641 5.33383 0.556641 5.74805C0.556641 6.16226 0.892427 6.49805 1.30664 6.49805V4.99805ZM16.6394 6.27838C16.9323 5.98548 16.9323 5.51061 16.6394 5.21772L11.8664 0.444746C11.5735 0.151853 11.0986 0.151853 10.8057 0.444746C10.5128 0.737639 10.5128 1.21251 10.8057 1.50541L15.0484 5.74805L10.8057 9.99069C10.5128 10.2836 10.5128 10.7585 10.8057 11.0513C11.0986 11.3442 11.5735 11.3442 11.8664 11.0513L16.6394 6.27838ZM1.30664 6.49805H16.109V4.99805H1.30664V6.49805Z" fill="#797979"/>
</svg>
