<svg width="25.000000" height="12.495605" viewBox="0 0 25 12.4956" fill="none" xmlns="http://www.w3.org/2000/svg" xmlns:xlink="http://www.w3.org/1999/xlink">
	<desc>
			Created with Pixso.
	</desc>
	<defs/>
	<path id="path4" d="M11.7 12.49L11.87 12.49L13.12 12.49L13.29 12.49L13.29 12.48C14.12 12.42 14.83 11.88 15.32 11.3L24.95 0.66C25.03 0.52 24.99 0.35 24.91 0.22C24.83 0.08 24.68 0 24.52 0L22.27 0C22.11 0 21.96 0.08 21.88 0.22L13.46 9.49C13.14 9.85 12.82 10.06 12.49 10.08C12.17 10.06 11.85 9.85 11.53 9.49L3.11 0.22C3.03 0.08 2.88 0 2.72 0L0.47 0C0.31 0 0.16 0.08 0.08 0.22C0 0.35 -0.04 0.52 0.04 0.66L9.67 11.3C10.16 11.88 10.87 12.42 11.7 12.48L11.7 12.49Z" fill="#084067" fill-opacity="1.000000" fill-rule="evenodd"/>
</svg>
