<svg width="40.000000" height="40.000000" viewBox="0 0 40 40" fill="none" xmlns="http://www.w3.org/2000/svg" xmlns:xlink="http://www.w3.org/1999/xlink">
	<desc>
			Created with Pixso.
	</desc>
	<defs>
		<filter id="filter_1_1146_dd" x="0.000000" y="0.000000" width="40.000000" height="40.000000" filterUnits="userSpaceOnUse" color-interpolation-filters="sRGB">
			<feFlood flood-opacity="0" result="BackgroundImageFix"/>
			<feGaussianBlur in="BackgroundImage" stdDeviation="1.66667"/>
			<feComposite in2="SourceAlpha" operator="in" result="effect_backgroundBlur_1"/>
			<feBlend mode="normal" in="SourceGraphic" in2="effect_backgroundBlur_1" result="shape"/>
		</filter>
		<clipPath id="clip1_1146">
			<rect id="ссылка прозрачная" rx="14.250000" width="38.500000" height="38.500000" transform="translate(0.750000 0.750000)" fill="white" fill-opacity="0"/>
		</clipPath>
	</defs>
	<g filter="url(#filter_1_1146_dd)">
		<rect id="ссылка прозрачная" rx="14.250000" width="38.500000" height="38.500000" transform="translate(0.750000 0.750000)" fill="#FFFFFF" fill-opacity="0.050000"/>
		<g clip-path="url(#clip1_1146)">
			<path id="Arrow 1" d="M24.97 17.33L14.43 24.94L13.56 23.72L24.09 16.11L19.95 15.45C19.54 15.38 19.26 15 19.33 14.59C19.4 14.17 19.78 13.9 20.19 13.97L26.11 14.92C26.53 14.99 26.8 15.37 26.74 15.78L25.78 21.7C25.71 22.12 25.33 22.39 24.92 22.33C24.51 22.26 24.23 21.88 24.3 21.47L24.97 17.33Z" fill="#084067" fill-opacity="1.000000" fill-rule="evenodd"/>
		</g>
		<rect id="ссылка прозрачная" rx="14.250000" width="38.500000" height="38.500000" transform="translate(0.750000 0.750000)" stroke="#084067" stroke-opacity="1.000000" stroke-width="1.500000"/>
	</g>
</svg>
