<svg width="60.000000" height="60.000000" viewBox="0 0 60 60" fill="none" xmlns="http://www.w3.org/2000/svg" xmlns:xlink="http://www.w3.org/1999/xlink">
	<desc>
			Created with Pixso.
	</desc>
	<defs>
		<filter id="filter_6_755_dd" x="0.000000" y="0.000000" width="60.000000" height="60.000000" filterUnits="userSpaceOnUse" color-interpolation-filters="sRGB">
			<feFlood flood-opacity="0" result="BackgroundImageFix"/>
			<feColorMatrix in="SourceAlpha" type="matrix" values="0 0 0 0 0 0 0 0 0 0 0 0 0 0 0 0 0 0 127 0" result="hardAlpha"/>
			<feOffset dx="0" dy="4"/>
			<feGaussianBlur stdDeviation="3.33333"/>
			<feComposite in2="hardAlpha" operator="out" k2="-1" k3="1"/>
			<feColorMatrix type="matrix" values="0 0 0 0 0 0 0 0 0 0 0 0 0 0 0 0 0 0 0.12 0"/>
			<feBlend mode="normal" in2="BackgroundImageFix" result="effect_dropShadow_1"/>
			<feBlend mode="normal" in="SourceGraphic" in2="effect_dropShadow_1" result="shape"/>
		</filter>
		<clipPath id="clip6_755">
			<rect id="Property 1=Default" rx="14.250000" width="38.500000" height="38.500000" transform="translate(10.750000 6.750000)" fill="white" fill-opacity="0"/>
		</clipPath>
	</defs>
	<g filter="url(#filter_6_755_dd)">
		<g clip-path="url(#clip6_755)">
			<path id="Arrow 1" d="M34.97 23.33L24.43 30.94L23.56 29.72L34.09 22.11L29.95 21.45C29.54 21.38 29.26 21 29.33 20.59C29.4 20.17 29.78 19.9 30.19 19.97L36.11 20.92C36.53 20.99 36.8 21.37 36.74 21.78L35.78 27.7C35.71 28.12 35.33 28.39 34.92 28.33C34.51 28.26 34.23 27.88 34.3 27.47L34.97 23.33Z" fill="#FFFFFF" fill-opacity="1.000000" fill-rule="evenodd"/>
		</g>
		<rect id="Property 1=Default" rx="14.250000" width="38.500000" height="38.500000" transform="translate(10.750000 6.750000)" stroke="#FFFFFF" stroke-opacity="1.000000" stroke-width="1.500000"/>
	</g>
</svg>
