<svg width="39.857101" height="33.001709" viewBox="0 0 39.8571 33.0017" fill="none" xmlns="http://www.w3.org/2000/svg" xmlns:xlink="http://www.w3.org/1999/xlink">
	<desc>
			Created with Pixso.
	</desc>
	<defs/>
	<path id="Vector 8" d="M16.5 25.64L14.21 17.64" stroke="#0AA5F0" stroke-opacity="1.000000" stroke-width="1.000000" stroke-linecap="round"/>
	<path id="Vector" d="M11.92 0.5L7.35 7.35M27.92 0.5L32.49 7.35" stroke="#FFFFFF" stroke-opacity="1.000000" stroke-width="1.000000"/>
	<path id="Vector 9" d="M23.35 25.64L25.64 17.64" stroke="#0AA5F0" stroke-opacity="1.000000" stroke-width="1.000000" stroke-linecap="round"/>
	<path id="Rectangle 41" d="M37.07 11.93C36.42 11.93 36.1 11.93 35.82 12.01C35.31 12.16 34.89 12.5 34.63 12.96C34.49 13.21 34.42 13.53 34.28 14.16L30.9 29.4C30.62 30.64 30.48 31.26 29.88 32.04C29.87 32.05 29.85 32.06 29.83 32.07C29.29 32.5 28.54 32.5 27.03 32.5L12.81 32.5C11.31 32.5 10.55 32.5 10.01 32.07C10 32.06 9.98 32.05 9.97 32.04C9.36 31.26 9.22 30.64 8.95 29.4L5.56 14.16C5.42 13.53 5.35 13.21 5.21 12.96C4.96 12.5 4.53 12.16 4.03 12.01C3.75 11.93 3.43 11.93 2.78 11.93" stroke="#FFFFFF" stroke-opacity="1.000000" stroke-width="1.000000" stroke-linecap="round"/>
	<path id="Vector 339" d="M37.07 11.93C37.33 11.93 37.46 11.93 37.58 11.91C38.5 11.81 39.24 11.08 39.34 10.15C39.35 10.04 39.35 9.9 39.35 9.64C39.35 9.37 39.35 9.24 39.34 9.13C39.24 8.2 38.5 7.47 37.58 7.37C37.46 7.35 37.33 7.35 37.07 7.35L2.78 7.35C2.52 7.35 2.38 7.35 2.27 7.37C1.34 7.47 0.61 8.2 0.51 9.13C0.5 9.24 0.5 9.37 0.5 9.64C0.5 9.9 0.5 10.04 0.51 10.15C0.61 11.08 1.34 11.81 2.27 11.91C2.38 11.93 2.52 11.93 2.78 11.93L37.07 11.93Z" stroke="#FFFFFF" stroke-opacity="1.000000" stroke-width="1.000000"/>
</svg>
