<svg width="32.000000" height="32.000000" viewBox="0 0 32 32" fill="none" xmlns="http://www.w3.org/2000/svg" xmlns:xlink="http://www.w3.org/1999/xlink">
	<desc>
			Created with Pixso.
	</desc>
	<defs/>
	<path id="Vector" d="M9.99 3.98C5.94 3.98 2.66 7.27 2.66 11.32C2.66 15.56 5.08 19.57 9.08 23.23C10.44 24.48 11.91 25.58 13.37 26.57C13.88 26.91 14.36 27.22 14.78 27.48C15.05 27.64 15.22 27.76 15.33 27.82C15.73 28.04 16.26 28.04 16.66 27.82C16.77 27.76 16.94 27.64 17.2 27.48C17.63 27.22 18.11 26.91 18.62 26.57C20.08 25.58 21.55 24.48 22.91 23.23C26.91 19.57 29.33 15.56 29.33 11.32C29.33 7.27 26.04 3.98 21.99 3.98C19.69 3.98 17.45 5.24 16.03 7.07C14.66 5.2 12.42 3.98 9.99 3.98Z" fill="#084067" fill-opacity="0" fill-rule="nonzero"/>
	<path id="Vector" d="M15.01 5.94C13.67 4.73 11.89 3.98 9.99 3.98C5.94 3.98 2.66 7.27 2.66 11.32C2.66 15.56 5.08 19.57 9.08 23.23C10.44 24.48 11.91 25.58 13.37 26.57C13.88 26.91 14.36 27.22 14.78 27.48C15.05 27.64 15.22 27.76 15.33 27.82C15.73 28.04 16.26 28.04 16.66 27.82C16.77 27.76 16.94 27.64 17.2 27.48C17.63 27.22 18.11 26.91 18.62 26.57C20.08 25.58 21.55 24.48 22.91 23.23C26.91 19.57 29.33 15.56 29.33 11.32C29.33 7.27 26.04 3.98 21.99 3.98C20.2 3.98 18.43 4.75 17.07 5.95C16.69 6.29 16.34 6.66 16.03 7.07C15.73 6.66 15.39 6.28 15.01 5.94ZM10.09 22.13Q4.16 16.69 4.16 11.32Q4.16 10.11 4.59 9.07Q5.01 8.04 5.87 7.19Q6.72 6.34 7.75 5.91Q8.78 5.48 9.99 5.48Q11.41 5.48 12.56 6.03Q13.86 6.65 14.83 7.96L16.01 9.55L17.22 7.98Q18.45 6.4 20.03 5.82Q20.95 5.48 21.99 5.48Q23.2 5.48 24.23 5.91Q25.26 6.34 26.12 7.19Q26.97 8.04 27.4 9.07Q27.83 10.11 27.83 11.32Q27.83 16.69 21.9 22.13Q20.18 23.7 17.78 25.32Q16.97 25.87 16.42 26.2Q16.3 26.28 16.1 26.4Q16.04 26.44 15.99 26.47Q15.95 26.44 15.88 26.4Q15.69 26.28 15.56 26.2Q15.02 25.87 14.21 25.32Q11.81 23.7 10.09 22.13Z" fill="#FFFFFF" fill-opacity="1.000000" fill-rule="evenodd"/>
</svg>
