<svg width="33.500000" height="33.500000" viewBox="0 0 33.5 33.5" fill="none" xmlns="http://www.w3.org/2000/svg" xmlns:xlink="http://www.w3.org/1999/xlink">
	<desc>
			Created with Pixso.
	</desc>
	<defs>
		<filter id="filter_6_1362_dd" x="0.000000" y="0.000000" width="33.500000" height="33.500000" filterUnits="userSpaceOnUse" color-interpolation-filters="sRGB">
			<feFlood flood-opacity="0" result="BackgroundImageFix"/>
			<feGaussianBlur in="BackgroundImage" stdDeviation="3.76471"/>
			<feComposite in2="SourceAlpha" operator="in" result="effect_backgroundBlur_1"/>
			<feBlend mode="normal" in="SourceGraphic" in2="effect_backgroundBlur_1" result="shape"/>
		</filter>
		<filter id="filter_6_1363_dd" x="12.043427" y="6.867432" width="12.235260" height="24.470703" filterUnits="userSpaceOnUse" color-interpolation-filters="sRGB">
			<feFlood flood-opacity="0" result="BackgroundImageFix"/>
			<feGaussianBlur in="BackgroundImage" stdDeviation="2.19608"/>
			<feComposite in2="SourceAlpha" operator="in" result="effect_backgroundBlur_1"/>
			<feColorMatrix in="SourceAlpha" type="matrix" values="0 0 0 0 0 0 0 0 0 0 0 0 0 0 0 0 0 0 127 0" result="hardAlpha"/>
			<feOffset dx="1.41176" dy="2.35294"/>
			<feGaussianBlur stdDeviation="1.56863"/>
			<feComposite in2="hardAlpha" operator="out" k2="-1" k3="1"/>
			<feColorMatrix type="matrix" values="0 0 0 0 0.5098 0 0 0 0 0.94118 0 0 0 0 0.62745 0 0 0 0.5 0"/>
			<feBlend mode="normal" in2="effect_backgroundBlur_1" result="effect_dropShadow_2"/>
			<feBlend mode="normal" in="SourceGraphic" in2="effect_dropShadow_2" result="shape"/>
			<feColorMatrix in="SourceAlpha" type="matrix" values="0 0 0 0 0 0 0 0 0 0 0 0 0 0 0 0 0 0 127 0" result="hardAlpha"/>
			<feOffset dx="0" dy="0.0941177"/>
			<feGaussianBlur stdDeviation="0"/>
			<feComposite in2="hardAlpha" operator="arithmetic" k2="-1" k3="1"/>
			<feColorMatrix type="matrix" values="0 0 0 0 1 0 0 0 0 1 0 0 0 0 1 0 0 0 0.25 0"/>
			<feBlend mode="normal" in2="shape" result="effect_innerShadow_3"/>
			<feColorMatrix in="SourceAlpha" type="matrix" values="0 0 0 0 0 0 0 0 0 0 0 0 0 0 0 0 0 0 127 0" result="hardAlpha"/>
			<feOffset dx="0" dy="-0.0941177"/>
			<feGaussianBlur stdDeviation="0"/>
			<feComposite in2="hardAlpha" operator="arithmetic" k2="-1" k3="1"/>
			<feColorMatrix type="matrix" values="0 0 0 0 0.5098 0 0 0 0 0.94118 0 0 0 0 0.62745 0 0 0 0.24 0"/>
			<feBlend mode="normal" in2="effect_innerShadow_3" result="effect_innerShadow_4"/>
		</filter>
		<linearGradient x1="2.459661" y1="3.066702" x2="27.050312" y2="33.606194" id="paint_linear_6_1362_0" gradientUnits="userSpaceOnUse">
			<stop stop-color="#FFFFFF" stop-opacity="0.250980"/>
			<stop offset="1.000000" stop-color="#FFFFFF" stop-opacity="0.000000"/>
		</linearGradient>
	</defs>
	<rect id="icon" rx="-0.235294" width="31.529411" height="31.529411" transform="translate(0.985294 0.985294)" fill="#FFFFFF" fill-opacity="0"/>
	<g filter="url(#filter_6_1362_dd)">
		<path id="shape" d="M16.75 32.75C7.91 32.75 0.75 25.58 0.75 16.75C0.75 7.91 7.91 0.75 16.75 0.75C25.58 0.75 32.75 7.91 32.75 16.75C32.75 25.58 25.58 32.75 16.75 32.75Z" fill="#82F0A0" fill-opacity="1.000000" fill-rule="nonzero"/>
		<path id="shape" d="M0.75 16.75C0.75 7.91 7.91 0.75 16.75 0.75C25.58 0.75 32.75 7.91 32.75 16.75C32.75 25.58 25.58 32.75 16.75 32.75C7.91 32.75 0.75 25.58 0.75 16.75Z" stroke="url(#paint_linear_6_1362_0)" stroke-opacity="1.000000" stroke-width="1.500000" stroke-linejoin="round"/>
	</g>
	<g filter="url(#filter_6_1363_dd)">
		<path id="icon" d="M15.33 10.63C15.33 9.85 15.96 9.22 16.74 9.22C17.52 9.22 18.16 9.85 18.16 10.63C18.16 11.41 17.52 12.04 16.74 12.04C15.96 12.04 15.33 11.41 15.33 10.63ZM15.33 15.33C15.33 14.55 15.96 13.92 16.74 13.92C17.52 13.92 18.16 14.55 18.16 15.33L18.16 22.86C18.16 23.64 17.52 24.27 16.74 24.27C15.96 24.27 15.33 23.64 15.33 22.86L15.33 15.33Z" fill="#FFFFFF" fill-opacity="1.000000" fill-rule="evenodd"/>
	</g>
</svg>
