<svg width="146.799988" height="146.800049" viewBox="0 0 146.8 146.8" fill="none" xmlns="http://www.w3.org/2000/svg" xmlns:xlink="http://www.w3.org/1999/xlink">
	<desc>
			Created with Pixso.
	</desc>
	<defs>
		<filter id="filter_1_1170_dd" x="0.000000" y="0.000000" width="146.799988" height="146.800049" filterUnits="userSpaceOnUse" color-interpolation-filters="sRGB">
			<feFlood flood-opacity="0" result="BackgroundImageFix"/>
			<feColorMatrix in="SourceAlpha" type="matrix" values="0 0 0 0 0 0 0 0 0 0 0 0 0 0 0 0 0 0 127 0" result="hardAlpha"/>
			<feOffset dx="0" dy="4"/>
			<feGaussianBlur stdDeviation="17.4667"/>
			<feComposite in2="hardAlpha" operator="out" k2="-1" k3="1"/>
			<feColorMatrix type="matrix" values="0 0 0 0 0 0 0 0 0 0 0 0 0 0 0 0 0 0 0.071 0"/>
			<feBlend mode="normal" in2="BackgroundImageFix" result="effect_dropShadow_1"/>
			<feBlend mode="normal" in="SourceGraphic" in2="effect_dropShadow_1" result="shape"/>
		</filter>
	</defs>
	<g filter="url(#filter_1_1170_dd)">
		<path id="Vector 29" d="M69.97 71.79L67.4 71.55C65.4 71.37 64.4 71.28 64.08 70.6C63.76 69.91 64.34 69.08 65.49 67.44L73.26 56.34C74.02 55.25 74.4 54.71 74.73 54.82C75.06 54.94 75.01 55.6 74.93 56.93L74.93 56.93L74.44 64.21C74.36 65.42 74.32 66.02 74.67 66.43C75.01 66.84 75.62 66.89 76.82 67L79.39 67.24C81.39 67.42 82.39 67.51 82.71 68.19C83.03 68.88 82.45 69.71 81.3 71.35L73.53 82.45C72.77 83.54 72.39 84.08 72.06 83.97C71.73 83.85 71.78 83.19 71.86 81.86L72.35 74.58C72.43 73.37 72.47 72.77 72.12 72.36C71.78 71.95 71.17 71.9 69.97 71.79Z" fill="#82F0A0" fill-opacity="1.000000" fill-rule="nonzero"/>
		<path id="Vector 29" d="M71.24 71.9C71.95 71.97 72.48 72.59 72.43 73.3L71.75 83.5C71.72 83.97 72.32 84.18 72.59 83.8L82.6 69.5C83.17 68.67 82.64 67.53 81.64 67.44L75.55 66.89C74.84 66.82 74.31 66.2 74.36 65.49L75.04 55.29C75.07 54.82 74.47 54.61 74.2 54.99L64.19 69.29C63.62 70.12 64.15 71.26 65.15 71.35L71.24 71.9Z" stroke="#82F0A0" stroke-opacity="1.000000" stroke-width="1.312500"/>
		<path id="Vector 269" d="M84.77 55.4L82.15 58.9L85.65 58.9L83.02 62.4" stroke="#82F0A0" stroke-opacity="1.000000" stroke-width="1.312500" stroke-linejoin="round" stroke-linecap="round"/>
		<path id="Vector 270" d="M63.77 76.4L61.15 79.9L64.65 79.9L62.02 83.4" stroke="#82F0A0" stroke-opacity="1.000000" stroke-width="1.312500" stroke-linejoin="round" stroke-linecap="round"/>
	</g>
</svg>
