<svg width="29.090881" height="29.090820" viewBox="0 0 29.0909 29.0908" fill="none" xmlns="http://www.w3.org/2000/svg" xmlns:xlink="http://www.w3.org/1999/xlink">
	<desc>
			Created with Pixso.
	</desc>
	<defs/>
	<path id="Vector 29" d="M13.05 16.28C13.54 16.32 13.91 16.75 13.88 17.24L13.4 24.31C13.38 24.63 13.8 24.78 13.98 24.52L20.91 14.61C21.31 14.04 20.95 13.25 20.25 13.19L16.03 12.8C15.54 12.76 15.17 12.33 15.21 11.84L15.68 4.77C15.7 4.45 15.28 4.3 15.1 4.57L8.17 14.47C7.77 15.04 8.13 15.83 8.83 15.89L13.05 16.28Z" stroke="#FFFFFF" stroke-opacity="1.000000" stroke-width="0.909091"/>
	<path id="Vector 269" d="M22.42 4.84L20.6 7.27L23.03 7.27L21.21 9.69" stroke="#FFFFFF" stroke-opacity="1.000000" stroke-width="0.909091" stroke-linejoin="round" stroke-linecap="round"/>
	<path id="Vector 270" d="M7.87 19.39L6.06 21.81L8.48 21.81L6.66 24.24" stroke="#FFFFFF" stroke-opacity="1.000000" stroke-width="0.909091" stroke-linejoin="round" stroke-linecap="round"/>
</svg>
