<svg width="49" height="49" viewBox="0 0 49 49" fill="none" xmlns="http://www.w3.org/2000/svg">
<path d="M24.8711 36.3319C24.4684 36.5559 23.9404 36.5559 23.5378 36.3319C23.4779 36.2988 23.3985 36.2489 23.2955 36.1842C23.212 36.1318 23.113 36.0696 22.9962 35.9986L24.8711 36.3319ZM24.8711 36.3319C24.931 36.2988 25.0103 36.2489 25.1133 36.1842M24.8711 36.3319L25.1133 36.1842M25.1133 36.1842C25.1968 36.1318 25.2958 36.0696 25.4127 35.9986L25.1133 36.1842ZM23.2558 35.5713L23.2556 35.5712C22.8372 35.3171 22.367 35.0102 21.8592 34.6682C20.4147 33.6916 18.9665 32.6094 17.6256 31.3806C13.6756 27.7586 11.3711 23.877 11.3711 19.8319C11.3711 16.0574 14.4304 12.9985 18.2044 12.9985C20.4632 12.9985 22.5557 14.1371 23.8441 15.8786L24.2375 16.4104L24.6418 15.8868C25.9732 14.1622 28.0804 12.9985 30.2044 12.9985C33.9784 12.9985 37.0378 16.0574 37.0378 19.8319C37.0378 23.877 34.7332 27.7586 30.7833 31.3806C29.4423 32.6094 27.9941 33.6916 26.5496 34.6682C26.0419 35.0102 25.5717 35.3171 25.1532 35.5712L25.153 35.5713C25.0126 35.6567 24.909 35.7219 24.8283 35.7728C24.7412 35.8277 24.6806 35.8659 24.629 35.8945L24.628 35.895C24.3765 36.0349 24.0324 36.0349 23.7808 35.895L23.7799 35.8945C23.7282 35.8659 23.6677 35.8277 23.5805 35.7728C23.4998 35.7219 23.3963 35.6567 23.2558 35.5713Z" fill="#084067" stroke="#084067"/>
<path d="M36.207 8.51123L40.6293 17.3558C42.273 20.6433 39.8825 24.5112 36.207 24.5112C32.5315 24.5112 30.141 20.6433 31.7847 17.3558L36.207 8.51123Z" fill="#0AA5F0"/>
</svg>
