<svg width="48.000000" height="48.000000" viewBox="0 0 48 48" fill="none" xmlns="http://www.w3.org/2000/svg" xmlns:xlink="http://www.w3.org/1999/xlink">
	<desc>
			Created with Pixso.
	</desc>
	<defs/>
	<path id="Vector" d="M17.99 11.98C13.94 11.98 10.66 15.27 10.66 19.32C10.66 23.56 13.08 27.57 17.08 31.23C18.44 32.48 19.91 33.58 21.37 34.57C21.88 34.91 22.36 35.22 22.78 35.48C23.05 35.64 23.22 35.76 23.33 35.82C23.73 36.04 24.26 36.04 24.66 35.82C24.77 35.76 24.94 35.64 25.2 35.48C25.63 35.22 26.11 34.91 26.62 34.57C28.08 33.58 29.55 32.48 30.91 31.23C34.91 27.57 37.33 23.56 37.33 19.32C37.33 15.27 34.04 11.98 29.99 11.98C27.69 11.98 25.45 13.24 24.03 15.06C22.66 13.2 20.42 11.98 17.99 11.98Z" fill="#FCFCFD" fill-opacity="0" fill-rule="nonzero"/>
	<path id="Vector" d="M23.01 13.94C21.67 12.73 19.89 11.98 17.99 11.98C13.94 11.98 10.66 15.27 10.66 19.32C10.66 23.56 13.08 27.57 17.08 31.23C18.44 32.48 19.91 33.58 21.37 34.57C21.88 34.91 22.36 35.22 22.78 35.48C23.05 35.64 23.22 35.76 23.33 35.82C23.73 36.04 24.26 36.04 24.66 35.82C24.77 35.76 24.94 35.64 25.2 35.48C25.63 35.22 26.11 34.91 26.62 34.57C28.08 33.58 29.55 32.48 30.91 31.23C34.91 27.57 37.33 23.56 37.33 19.32C37.33 15.27 34.04 11.98 29.99 11.98C28.2 11.98 26.43 12.75 25.07 13.95C24.69 14.29 24.34 14.66 24.03 15.06C23.73 14.66 23.39 14.28 23.01 13.94ZM18.09 30.13C14.14 26.5 12.16 22.9 12.16 19.32C12.16 18.51 12.3 17.76 12.59 17.07C12.87 16.39 13.3 15.76 13.87 15.19C14.44 14.62 15.07 14.19 15.75 13.91C16.44 13.62 17.19 13.48 17.99 13.48C18.93 13.48 19.79 13.66 20.56 14.03C21.43 14.44 22.18 15.08 22.83 15.96L24.01 17.55L25.22 15.98C26.04 14.93 26.97 14.2 28.03 13.82C28.65 13.59 29.3 13.48 29.99 13.48C30.8 13.48 31.55 13.62 32.23 13.91C32.92 14.19 33.55 14.62 34.12 15.19C34.69 15.76 35.11 16.39 35.4 17.07C35.68 17.76 35.83 18.51 35.83 19.32C35.83 22.9 33.85 26.5 29.9 30.13C28.75 31.17 27.38 32.24 25.78 33.32C25.24 33.69 24.79 33.98 24.42 34.2C24.34 34.25 24.23 34.32 24.1 34.4C24.06 34.43 24.02 34.45 23.99 34.47C23.97 34.45 23.93 34.43 23.88 34.4C23.75 34.32 23.65 34.25 23.56 34.2C23.2 33.98 22.75 33.69 22.21 33.32C20.61 32.24 19.23 31.18 18.09 30.13Z" fill="#797979" fill-opacity="1.000000" fill-rule="evenodd"/>
	<path id="Polygon 3" d="M36 8L40.42 16.84C42.06 20.13 39.67 24 36 24C32.32 24 29.93 20.13 31.57 16.84L36 8Z" fill="#0AA5F0" fill-opacity="1.000000" fill-rule="evenodd"/>
</svg>
