<svg width="42.000000" height="30.000000" viewBox="0 0 42 30" fill="none" xmlns="http://www.w3.org/2000/svg" xmlns:xlink="http://www.w3.org/1999/xlink">
	<desc>
			Created with Pixso.
	</desc>
	<defs/>
	<path id="Vector" d="M40.93 6L1.06 6C0.48 6 0 5.52 0 4.93L0 1.07C0 0.48 0.48 0 1.06 0L40.93 0C41.52 0 42 0.48 42 1.07L42 4.93C42 5.52 41.52 6 40.93 6ZM40.93 18.01L5.98 18.01L5.98 23.99L40.93 23.99C41.52 23.99 42 24.47 42 25.06L42 28.93C42 29.51 41.52 29.99 40.93 29.99L4.96 29.99C4.93 29.99 4.9 30 4.87 30L1.1 30C1.06 30 1.02 29.99 0.98 29.99C0.44 29.95 0 29.48 0 28.93L0 28.92L0 25.06L0 16.95L0 13.08C0 12.49 0.48 12.01 1.06 12.01L40.93 12.01C41.52 12.01 42 12.49 42 13.08L42 16.95C42 17.53 41.52 18.01 40.93 18.01Z" fill="#084067" fill-opacity="1.000000" fill-rule="nonzero"/>
</svg>
