<svg width="40.000000" height="40.000000" viewBox="0 0 40 40" fill="none" xmlns="http://www.w3.org/2000/svg" xmlns:xlink="http://www.w3.org/1999/xlink">
	<desc>
			Created with Pixso.
	</desc>
	<defs/>
	<path id="Vector" d="M40 20C40 31.04 31.04 40 20 40C8.95 40 0 31.04 0 20C0 8.95 8.95 0 20 0C31.04 0 40 8.95 40 20ZM20.71 14.76C18.77 15.57 14.88 17.24 9.05 19.78C8.1 20.16 7.61 20.53 7.56 20.89C7.48 21.5 8.25 21.74 9.28 22.06C9.43 22.11 9.57 22.15 9.72 22.2C10.74 22.53 12.12 22.92 12.83 22.94C13.48 22.95 14.2 22.69 15 22.14C20.45 18.46 23.26 16.6 23.44 16.56C23.56 16.53 23.73 16.5 23.85 16.6C23.97 16.71 23.96 16.9 23.94 16.95C23.87 17.28 20.88 20.06 19.33 21.5C18.84 21.95 18.5 22.27 18.43 22.34C18.28 22.5 18.12 22.65 17.96 22.8C17.01 23.72 16.3 24.4 18 25.52C18.82 26.06 19.47 26.51 20.12 26.95C20.84 27.44 21.55 27.92 22.46 28.52C22.7 28.67 22.92 28.83 23.14 28.99C23.97 29.58 24.71 30.11 25.63 30.03C26.17 29.98 26.72 29.47 27 27.98C27.66 24.43 28.96 16.76 29.27 13.6C29.29 13.32 29.26 12.97 29.23 12.81C29.21 12.65 29.15 12.43 28.95 12.27C28.71 12.07 28.34 12.03 28.17 12.04C27.42 12.05 26.27 12.45 20.71 14.76Z" fill="#797979" fill-opacity="1.000000" fill-rule="evenodd"/>
</svg>
