<svg width="40.000000" height="40.000000" viewBox="0 0 40 40" fill="none" xmlns="http://www.w3.org/2000/svg" xmlns:xlink="http://www.w3.org/1999/xlink">
	<desc>
			Created with Pixso.
	</desc>
	<defs/>
	<path id="Vector" d="M2.81 2.81C0 5.62 0 10.14 0 19.2L0 20.8C0 29.85 0 34.37 2.81 37.18C5.62 40 10.14 40 19.2 40L20.8 40C29.85 40 34.37 40 37.18 37.18C40 34.37 40 29.85 40 20.8L40 19.2C40 10.14 40 5.62 37.18 2.81C34.37 0 29.85 0 20.8 0L19.2 0C10.14 0 5.62 0 2.81 2.81ZM6.75 12.16C6.96 22.56 12.16 28.81 21.28 28.81L21.8 28.81L21.8 22.86C25.15 23.2 27.68 25.65 28.7 28.81L33.43 28.81C32.13 24.08 28.71 21.46 26.58 20.46C28.71 19.23 31.71 16.23 32.43 12.16L28.13 12.16C27.19 15.46 24.43 18.46 21.8 18.75L21.8 12.16L17.5 12.16L17.5 23.7C14.83 23.03 11.46 19.79 11.31 12.16L6.75 12.16Z" fill="#797979" fill-opacity="1.000000" fill-rule="evenodd"/>
</svg>
