<svg width="40.000000" height="40.000000" viewBox="0 0 40 40" fill="none" xmlns="http://www.w3.org/2000/svg" xmlns:xlink="http://www.w3.org/1999/xlink">
	<desc>
			Created with Pixso.
	</desc>
	<defs/>
	<g opacity="0.600000">
		<path id="Vector" d="M20.4 9.62C15.1 9.62 10.77 13.93 10.77 19.25C10.77 21 11.25 22.73 12.18 24.24L12.44 24.65L11.47 28.24L15.09 27.28L15.5 27.52C16.99 28.41 18.69 28.88 20.42 28.88C25.73 28.88 30.05 24.56 30.05 19.25C30.05 13.93 25.73 9.62 20.42 9.62L20.4 9.62ZM26.06 22.89C25.7 23.76 24.8 24.32 23.91 24.49C23.04 24.66 22.33 24.38 21.54 24.12C20.83 23.88 20.14 23.54 19.5 23.15C18.22 22.37 17.11 21.32 16.23 20.12C15.97 19.74 15.71 19.37 15.49 18.97C15.18 18.45 14.91 17.9 14.76 17.31C14.7 17.07 14.68 16.81 14.67 16.56C14.67 15.67 14.99 14.76 15.7 14.18C16.11 13.85 16.71 13.7 17.17 13.97C17.67 14.24 17.93 14.96 18.16 15.46C18.34 15.85 18.55 16.37 18.47 16.8C18.4 17.23 18.05 17.61 17.78 17.93C17.59 18.15 17.56 18.34 17.72 18.57C18.63 20.1 19.9 21.2 21.56 21.86C21.79 21.96 21.96 21.92 22.1 21.74C22.39 21.39 22.67 20.69 23.12 20.51C23.69 20.27 24.33 20.61 24.82 20.9C25.27 21.18 26.03 21.5 26.15 22.07C26.21 22.35 26.15 22.62 26.06 22.89Z" fill="#797979" fill-opacity="1.000000" fill-rule="nonzero"/>
		<path id="Vector" d="M20 0C8.95 0 0 8.95 0 20C0 31.04 8.95 40 20 40C31.04 40 40 31.04 40 20C40 8.95 31.04 0 20 0ZM20.4 31.12C18.44 31.12 16.5 30.63 14.76 29.69L8.3 31.42L10.03 24.99C9.05 23.23 8.53 21.25 8.53 19.25C8.53 12.7 13.86 7.37 20.4 7.37C26.95 7.37 32.28 12.7 32.28 19.25C32.28 25.79 26.95 31.12 20.4 31.12Z" fill="#797979" fill-opacity="1.000000" fill-rule="nonzero"/>
	</g>
</svg>
