<svg width="287.216858" height="61.000000" viewBox="0 0 287.217 61" fill="none" xmlns="http://www.w3.org/2000/svg" xmlns:xlink="http://www.w3.org/1999/xlink">
	<desc>
			Created with Pixso.
	</desc>
	<defs/>
	<path id="Vector" d="M105.71 18.43L74.93 18.43C74.48 18.43 74.11 18.06 74.11 17.61L74.11 14.62C74.11 14.17 74.48 13.8 74.93 13.8L105.71 13.8C106.16 13.8 106.53 14.17 106.53 14.62L106.53 17.61C106.53 18.06 106.16 18.43 105.71 18.43ZM68.64 36.96L42.99 36.95C39.75 36.95 37.09 34.29 37.09 31.05L37.09 19.71C37.09 16.46 39.75 13.8 42.99 13.8L68.64 13.8C69.1 13.8 69.48 14.17 69.48 14.63L69.48 17.6C69.48 18.06 69.1 18.43 68.64 18.43L44.01 18.43C42.73 18.43 41.68 19.47 41.68 20.76L41.68 30C41.68 31.28 42.73 32.33 44.01 32.33L68.64 32.33C69.1 32.33 69.48 32.7 69.48 33.16L69.48 36.13C69.48 36.59 69.1 36.96 68.64 36.96ZM26.52 36.96L3.81 36.96C3.79 36.96 3.78 36.96 3.76 36.96L0.85 36.96C0.37 36.96 0 36.59 0 36.13L0 14.64C0 14.18 0.37 13.8 0.85 13.8L1.15 13.8L1.16 13.8L26.52 13.8C29.77 13.8 32.42 16.46 32.42 19.72L32.42 21.07C32.42 22.6 31.83 24.06 30.77 25.15L30.56 25.38L30.77 25.61C31.83 26.72 32.42 28.16 32.42 29.69L32.42 31.06C32.42 34.3 29.77 36.96 26.52 36.96ZM4.61 32.34L25.63 32.34C26.91 32.34 27.96 31.44 27.96 30.16L27.96 29.95C27.96 28.67 26.91 27.68 25.63 27.68L4.61 27.68L4.61 32.34ZM4.61 23.07L25.63 23.07C26.91 23.07 27.96 22.1 27.96 20.82L27.96 20.6C27.96 19.32 26.95 18.42 25.67 18.42L4.61 18.42L4.61 23.07ZM105.71 27.71L78.73 27.71L78.73 32.32L105.71 32.32C106.16 32.32 106.53 32.7 106.53 33.15L106.53 36.14C106.53 36.59 106.16 36.96 105.71 36.96L77.94 36.96C77.92 36.96 77.9 36.96 77.87 36.96L74.96 36.96C74.93 36.96 74.9 36.96 74.87 36.96C74.45 36.92 74.11 36.57 74.11 36.14L74.11 36.13L74.11 33.15L74.11 26.89L74.11 24.69L74.11 23.9C74.11 23.44 74.48 23.07 74.93 23.07L105.71 23.07C106.16 23.07 106.53 23.44 106.53 23.9L106.53 26.89C106.53 27.34 106.16 27.71 105.71 27.71ZM87.66 3.77L93.07 3.77C94.36 3.77 95.42 4.82 95.42 6.11L95.42 9.19L99.19 9.19L99.19 5.59C99.19 2.51 96.67 0 93.59 0L87.14 0C84.06 0 81.54 2.51 81.54 5.59L81.54 9.19L85.31 9.19L85.31 6.11C85.31 4.82 86.37 3.77 87.66 3.77Z" fill="#084067" fill-opacity="1.000000" fill-rule="evenodd"/>
	<path id="Vector" d="M195.42 36.97L174.8 36.97C171.55 36.97 168.9 34.3 168.9 31.06L168.9 19.72C168.9 16.46 171.55 13.8 174.8 13.8L195.42 13.8C198.67 13.8 201.32 16.46 201.32 19.72L201.32 31.06C201.32 34.3 198.67 36.97 195.42 36.97ZM232.55 36.97L207.15 36.97C207.12 36.97 207.09 36.97 207.05 36.96L206.93 36.96C206.45 36.96 206.07 36.59 206.07 36.13L206.07 23.9C206.07 23.44 206.45 23.06 206.93 23.06L209.84 23.06C210.3 23.06 210.69 23.44 210.69 23.9L210.69 32.31L231.46 32.31C232.75 32.31 233.8 31.26 233.8 29.97L233.8 20.78C233.8 19.49 232.75 18.45 231.46 18.45L206.87 18.45C206.41 18.45 206.04 18.07 206.04 17.61L206.04 14.62C206.04 14.16 206.41 13.79 206.87 13.79L232.55 13.79C235.79 13.79 238.46 16.45 238.46 19.7L238.46 31.06C238.46 34.3 235.79 36.97 232.55 36.97ZM273.33 27.6L254.82 27.6L246.7 36.53C246.55 36.8 246.28 36.96 245.98 36.96L241.81 36.96C241.51 36.96 241.25 36.81 241.09 36.55C240.94 36.29 240.86 35.99 241.01 35.73L258.84 16.02C259.74 14.96 261.06 13.96 262.6 13.84L262.6 13.83L262.91 13.83L265.24 13.83L265.54 13.83L265.54 13.84C267.08 13.96 268.4 14.96 269.3 16.02L287.13 35.73C287.28 35.99 287.2 36.29 287.05 36.55C286.9 36.81 286.64 36.96 286.33 36.96L282.17 36.96C281.86 36.96 281.6 36.8 281.45 36.53L273.33 27.6ZM258.84 23.18L269.31 23.18L265.87 19.39C265.26 18.72 264.68 18.33 264.07 18.29C263.46 18.33 262.89 18.72 262.28 19.39L258.84 23.18ZM145.06 36.96L144.75 36.96L142.42 36.96L142.12 36.96L142.12 36.95C140.58 36.83 139.26 35.83 138.36 34.76L120.53 15.05C120.38 14.79 120.46 14.49 120.61 14.23C120.76 13.98 121.02 13.83 121.33 13.83L125.49 13.83C125.8 13.83 126.07 13.98 126.21 14.25L141.79 31.4C142.4 32.06 142.98 32.46 143.59 32.5C144.2 32.46 144.78 32.06 145.38 31.4L160.96 14.25C161.11 13.98 161.38 13.83 161.68 13.83L165.85 13.83C166.15 13.83 166.41 13.98 166.57 14.23C166.72 14.49 166.8 14.79 166.65 15.05L148.82 34.76C147.92 35.83 146.6 36.83 145.06 36.95L145.06 36.96ZM175.79 18.37C174.5 18.37 173.45 19.41 173.45 20.7L173.45 30.07C173.45 31.35 174.5 32.4 175.79 32.4L194.44 32.4C195.72 32.4 196.77 31.35 196.77 30.07L196.77 20.7C196.77 19.41 195.72 18.37 194.44 18.37L175.79 18.37Z" fill="#0AA5F0" fill-opacity="1.000000" fill-rule="nonzero"/>
	<path id="Vector" d="M2.05 60.21L0 60.21L3.78 50.95L5.93 50.95L9.7 60.21L7.65 60.21L6.97 58.48L2.74 58.48L2.05 60.21ZM4.64 53.52L3.36 56.84L6.35 56.84L5.05 53.52C4.96 53.27 4.9 53.02 4.85 52.79C4.8 53.06 4.73 53.3 4.64 53.52ZM22.78 59.79L21.44 60.99L20.3 59.86C19.6 60.22 18.78 60.4 17.85 60.4C17.06 60.4 16.34 60.27 15.71 60C15.07 59.74 14.55 59.38 14.15 58.93C13.75 58.48 13.45 57.97 13.24 57.39C13.03 56.82 12.93 56.22 12.93 55.58C12.93 54.94 13.03 54.34 13.24 53.77C13.45 53.19 13.75 52.68 14.15 52.23C14.55 51.78 15.07 51.42 15.71 51.16C16.34 50.89 17.06 50.76 17.85 50.76C18.65 50.76 19.36 50.89 20 51.16C20.63 51.42 21.15 51.78 21.55 52.23C21.96 52.68 22.26 53.19 22.47 53.77C22.67 54.34 22.78 54.94 22.78 55.58C22.78 56.81 22.42 57.86 21.71 58.73L22.78 59.79ZM14.95 55.58C14.95 56.44 15.21 57.15 15.71 57.71C16.21 58.28 16.93 58.56 17.85 58.56C18.21 58.56 18.53 58.5 18.83 58.39L17.72 57.27L18.99 56.02L20.26 57.27C20.58 56.8 20.74 56.23 20.74 55.58C20.74 54.72 20.49 54.01 19.98 53.44C19.48 52.86 18.77 52.57 17.85 52.57C16.93 52.57 16.21 52.86 15.71 53.43C15.21 54 14.95 54.72 14.95 55.58ZM33.45 50.95L35.42 50.95L35.42 56.73C35.42 57.26 35.34 57.74 35.2 58.16C35.05 58.59 34.84 58.93 34.59 59.21C34.33 59.48 34.03 59.71 33.67 59.9C33.32 60.08 32.95 60.21 32.57 60.29C32.18 60.36 31.78 60.4 31.36 60.4C30.93 60.4 30.53 60.36 30.14 60.29C29.76 60.21 29.39 60.08 29.04 59.9C28.69 59.71 28.38 59.48 28.13 59.21C27.87 58.93 27.67 58.59 27.52 58.16C27.37 57.74 27.29 57.26 27.29 56.73L27.29 50.95L29.28 50.95L29.28 56.63C29.28 57.95 29.97 58.61 31.36 58.61C32.75 58.61 33.45 57.95 33.45 56.63L33.45 50.95ZM41.2 60.21L39.15 60.21L42.94 50.95L45.08 50.95L48.86 60.21L46.8 60.21L46.13 58.48L41.89 58.48L41.2 60.21ZM43.8 53.52L42.51 56.84L45.51 56.84L44.21 53.52C44.12 53.27 44.05 53.02 44.01 52.79C43.96 53.06 43.89 53.3 43.8 53.52ZM66.7 50.95L68.54 50.95L68.54 60.21L66.56 60.21L66.56 54.51L64.11 58.23L62.95 58.23L60.51 54.49L60.51 60.21L58.52 60.21L58.52 50.95L60.36 50.95L63.54 55.77L66.7 50.95ZM74.76 60.21L72.71 60.21L76.5 50.95L78.64 50.95L82.41 60.21L80.36 60.21L79.69 58.48L75.45 58.48L74.76 60.21ZM77.36 53.52L76.07 56.84L79.06 56.84L77.77 53.52C77.68 53.27 77.61 53.02 77.57 52.79C77.52 53.06 77.45 53.3 77.36 53.52ZM88.57 60.21L86.58 60.21L86.58 50.95L90.4 50.95C90.88 50.95 91.33 51 91.74 51.09C92.15 51.19 92.54 51.35 92.91 51.57C93.27 51.79 93.56 52.1 93.77 52.51C93.97 52.91 94.08 53.4 94.08 53.97C94.08 55.37 93.4 56.29 92.05 56.72L94.82 60.21L92.53 60.21L90.03 56.97L88.57 56.97L88.57 60.21ZM88.57 52.69L88.57 55.32L90.49 55.32C90.94 55.32 91.31 55.21 91.61 54.99C91.9 54.77 92.05 54.45 92.05 54.01C92.05 53.55 91.91 53.22 91.61 53.01C91.32 52.8 90.95 52.69 90.49 52.69L88.57 52.69ZM101.05 60.21L99.07 60.21L99.07 50.95L101.05 50.95L101.05 54.63L102.55 54.63L104.89 50.95L107.1 50.95L104.1 55.46L107.27 60.21L105.08 60.21L102.55 56.43L101.05 56.43L101.05 60.21ZM111.35 50.95L117.88 50.95L117.88 52.69L113.34 52.69L113.34 54.67L117.48 54.67L117.48 56.4L113.34 56.4L113.34 58.47L117.96 58.47L117.96 60.21L111.35 60.21L111.35 50.95ZM121.85 50.95L129.51 50.95L129.51 52.73L126.67 52.73L126.67 60.21L124.69 60.21L124.69 52.73L121.85 52.73L121.85 50.95Z" fill="#084067" fill-opacity="1.000000" fill-rule="evenodd"/>
</svg>
