<svg width="320.000000" height="66.902588" viewBox="0 0 320 66.9026" fill="none" xmlns="http://www.w3.org/2000/svg" xmlns:xlink="http://www.w3.org/1999/xlink">
	<desc>
			Created with Pixso.
	</desc>
	<defs/>
	<path id="Vector" d="M117.78 20.21L83.48 20.21C82.98 20.21 82.57 19.81 82.57 19.31L82.57 16.04C82.57 15.54 82.98 15.13 83.48 15.13L117.78 15.13C118.28 15.13 118.69 15.54 118.69 16.04L118.69 19.31C118.69 19.81 118.28 20.21 117.78 20.21ZM76.48 40.54L47.9 40.53C44.29 40.53 41.33 37.61 41.33 34.05L41.33 21.61C41.33 18.05 44.29 15.13 47.9 15.13L76.48 15.14C76.99 15.14 77.41 15.55 77.41 16.05L77.41 19.3C77.41 19.81 76.99 20.22 76.48 20.22L49.04 20.21C47.61 20.21 46.44 21.36 46.44 22.77L46.44 32.9C46.44 34.31 47.61 35.46 49.04 35.46L76.48 35.46C76.99 35.46 77.41 35.87 77.41 36.37L77.41 39.62C77.41 40.13 76.99 40.54 76.48 40.54ZM29.54 40.54L4.25 40.54C4.23 40.54 4.21 40.54 4.19 40.54L0.95 40.54C0.42 40.54 0 40.13 0 39.63L0 16.05C0 15.55 0.42 15.14 0.95 15.14L1.28 15.14L1.29 15.14L29.54 15.14C33.16 15.14 36.12 18.06 36.12 21.62L36.12 23.11C36.12 24.78 35.46 26.38 34.28 27.59L34.04 27.84L34.28 28.09C35.46 29.3 36.12 30.89 36.12 32.57L36.12 34.06C36.12 37.62 33.16 40.54 29.54 40.54ZM5.14 35.48L28.55 35.48C29.98 35.48 31.15 34.49 31.15 33.08L31.15 32.85C31.15 31.44 29.98 30.36 28.55 30.36L5.14 30.36L5.14 35.48ZM5.14 25.3L28.55 25.3C29.98 25.3 31.15 24.24 31.15 22.83L31.15 22.6C31.15 21.19 30.03 20.21 28.6 20.21L5.14 20.21L5.14 25.3ZM117.78 30.39L87.71 30.39L87.71 35.45L117.78 35.45C118.28 35.45 118.69 35.86 118.69 36.36L118.69 39.63C118.69 40.13 118.28 40.54 117.78 40.54L86.84 40.54C86.81 40.54 86.79 40.54 86.76 40.54L83.52 40.54C83.49 40.54 83.45 40.54 83.42 40.53C82.95 40.5 82.57 40.1 82.57 39.63L82.57 39.63L82.57 36.36L82.57 29.49L82.57 27.08L82.57 26.21C82.57 25.71 82.98 25.31 83.48 25.31L117.78 25.31C118.28 25.31 118.69 25.71 118.69 26.21L118.69 29.49C118.69 29.98 118.28 30.39 117.78 30.39ZM97.67 4.13L103.69 4.13C105.13 4.13 106.31 5.29 106.31 6.71L106.31 10.08L110.51 10.08L110.51 6.13C110.51 2.76 107.71 0 104.28 0L97.08 0C93.65 0 90.85 2.76 90.85 6.13L90.85 10.08L95.05 10.08L95.05 6.71C95.05 5.29 96.23 4.13 97.67 4.13Z" fill="#FFFFFF" fill-opacity="1.000000" fill-rule="nonzero"/>
	<path id="Vector" d="M217.73 40.54L194.76 40.54C191.14 40.54 188.18 37.62 188.18 34.07L188.18 21.62C188.18 18.06 191.14 15.14 194.76 15.14L217.73 15.14C221.35 15.14 224.3 18.06 224.3 21.62L224.3 34.07C224.3 37.62 221.35 40.54 217.73 40.54ZM259.09 40.54L230.8 40.54C230.76 40.54 230.72 40.54 230.69 40.54L230.55 40.54C230.02 40.54 229.6 40.13 229.6 39.63L229.6 26.21C229.6 25.71 230.02 25.3 230.55 25.3L233.79 25.3C234.31 25.3 234.74 25.71 234.74 26.21L234.74 35.43L257.88 35.43C259.32 35.43 260.49 34.28 260.49 32.87L260.49 22.79C260.49 21.38 259.32 20.23 257.88 20.23L230.49 20.23C229.97 20.23 229.56 19.82 229.56 19.32L229.56 16.03C229.56 15.53 229.97 15.12 230.49 15.12L259.09 15.12C262.71 15.12 265.67 18.04 265.67 21.61L265.67 34.06C265.67 37.62 262.71 40.54 259.09 40.54ZM304.53 30.27L283.9 30.27L274.86 40.07C274.69 40.36 274.39 40.53 274.05 40.53L269.41 40.53C269.07 40.53 268.78 40.37 268.61 40.09C268.45 39.8 268.35 39.47 268.52 39.19L288.39 17.58C289.39 16.4 290.86 15.31 292.57 15.18L292.57 15.16L292.92 15.16L295.51 15.16L295.85 15.16L295.85 15.18C297.57 15.31 299.04 16.4 300.04 17.58L319.91 39.19C320.07 39.47 319.98 39.8 319.81 40.09C319.65 40.37 319.35 40.53 319.02 40.53L314.38 40.53C314.04 40.53 313.74 40.36 313.57 40.07L304.53 30.27ZM288.38 25.42L300.05 25.42L296.21 21.26C295.54 20.53 294.89 20.1 294.21 20.06C293.54 20.1 292.89 20.53 292.21 21.26L288.38 25.42ZM161.62 40.53L161.28 40.53L158.68 40.53L158.34 40.53L158.34 40.52C156.62 40.39 155.15 39.3 154.15 38.12L134.29 16.51C134.12 16.22 134.21 15.89 134.38 15.61C134.55 15.33 134.84 15.16 135.17 15.16L139.82 15.16C140.16 15.16 140.46 15.34 140.62 15.63L157.98 34.44C158.66 35.16 159.3 35.6 159.98 35.64C160.66 35.6 161.3 35.16 161.98 34.44L179.33 15.63C179.5 15.34 179.8 15.16 180.14 15.16L184.78 15.16C185.12 15.16 185.41 15.33 185.58 15.61C185.75 15.89 185.84 16.22 185.67 16.51L165.8 38.12C164.8 39.3 163.33 40.39 161.62 40.52L161.62 40.53ZM195.85 20.14C194.42 20.14 193.25 21.29 193.25 22.7L193.25 32.98C193.25 34.39 194.42 35.54 195.85 35.54L216.63 35.54C218.06 35.54 219.23 34.39 219.23 32.98L219.23 22.7C219.23 21.29 218.06 20.14 216.63 20.14L195.85 20.14Z" fill="#0AA5F0" fill-opacity="1.000000" fill-rule="nonzero"/>
	<path id="Vector" d="M2.28 66.04L0 66.04L4.21 55.88L6.6 55.88L10.81 66.04L8.52 66.04L7.77 64.14L3.05 64.14L2.28 66.04ZM5.17 58.69L3.74 62.34L7.08 62.34L5.63 58.69C5.53 58.42 5.46 58.16 5.41 57.9C5.35 58.2 5.27 58.46 5.17 58.69ZM25.38 65.58L23.89 66.9L22.62 65.65C21.83 66.05 20.92 66.24 19.89 66.24C19.01 66.24 18.21 66.1 17.5 65.81C16.79 65.52 16.22 65.13 15.77 64.63C15.32 64.14 14.98 63.58 14.75 62.95C14.52 62.32 14.4 61.66 14.4 60.96C14.4 60.26 14.52 59.6 14.75 58.97C14.98 58.34 15.32 57.78 15.77 57.29C16.22 56.79 16.79 56.4 17.5 56.11C18.21 55.82 19.01 55.67 19.89 55.67C20.78 55.67 21.57 55.82 22.28 56.11C22.99 56.4 23.57 56.79 24.01 57.29C24.46 57.78 24.8 58.34 25.03 58.97C25.26 59.6 25.38 60.26 25.38 60.96C25.38 62.3 24.98 63.46 24.18 64.41L25.38 65.58ZM16.66 60.96C16.66 61.9 16.94 62.68 17.5 63.3C18.06 63.92 18.86 64.23 19.89 64.23C20.28 64.23 20.65 64.16 20.98 64.04L19.74 62.82L21.16 61.44L22.58 62.82C22.93 62.29 23.11 61.68 23.11 60.96C23.11 60.02 22.83 59.24 22.27 58.61C21.71 57.98 20.91 57.66 19.89 57.66C18.86 57.66 18.06 57.97 17.5 58.6C16.94 59.22 16.66 60.01 16.66 60.96ZM37.27 55.88L39.46 55.88L39.46 62.22C39.46 62.8 39.38 63.33 39.21 63.79C39.05 64.25 38.82 64.64 38.53 64.94C38.25 65.24 37.91 65.49 37.52 65.69C37.12 65.9 36.71 66.04 36.28 66.12C35.86 66.2 35.41 66.24 34.94 66.24C34.46 66.24 34.01 66.2 33.59 66.12C33.16 66.04 32.75 65.9 32.35 65.69C31.96 65.49 31.62 65.24 31.34 64.94C31.05 64.64 30.82 64.25 30.66 63.79C30.49 63.33 30.41 62.8 30.41 62.22L30.41 55.88L32.62 55.88L32.62 62.11C32.62 63.56 33.39 64.28 34.94 64.28C36.49 64.28 37.27 63.56 37.27 62.11L37.27 55.88ZM45.91 66.04L43.62 66.04L47.84 55.88L50.23 55.88L54.43 66.04L52.15 66.04L51.39 64.14L46.67 64.14L45.91 66.04ZM48.8 58.69L47.37 62.34L50.7 62.34L49.26 58.69C49.16 58.42 49.08 58.16 49.03 57.9C48.98 58.2 48.9 58.46 48.8 58.69ZM74.32 55.88L76.37 55.88L76.37 66.04L74.15 66.04L74.15 59.78L71.42 63.86L70.14 63.86L67.41 59.77L67.41 66.04L65.2 66.04L65.2 55.88L67.25 55.88L70.79 61.16L74.32 55.88ZM83.3 66.04L81.01 66.04L85.23 55.88L87.62 55.88L91.82 66.04L89.54 66.04L88.78 64.14L84.06 64.14L83.3 66.04ZM86.19 58.69L84.76 62.34L88.09 62.34L86.64 58.69C86.55 58.42 86.47 58.16 86.42 57.9C86.36 58.2 86.29 58.46 86.19 58.69ZM98.68 66.04L96.47 66.04L96.47 55.88L100.72 55.88C101.26 55.88 101.75 55.93 102.21 56.04C102.67 56.14 103.1 56.32 103.51 56.56C103.92 56.8 104.24 57.14 104.47 57.59C104.7 58.04 104.82 58.57 104.82 59.19C104.82 60.73 104.06 61.73 102.56 62.21L105.64 66.04L103.09 66.04L100.3 62.48L98.68 62.48L98.68 66.04ZM98.68 57.79L98.68 60.67L100.82 60.67C101.32 60.67 101.74 60.55 102.06 60.31C102.39 60.08 102.56 59.72 102.56 59.23C102.56 58.74 102.4 58.37 102.07 58.14C101.75 57.91 101.33 57.79 100.82 57.79L98.68 57.79ZM112.59 66.04L110.37 66.04L110.37 55.88L112.59 55.88L112.59 59.91L114.25 59.91L116.86 55.88L119.33 55.88L115.98 60.83L119.52 66.04L117.07 66.04L114.25 61.89L112.59 61.89L112.59 66.04ZM124.06 55.88L131.33 55.88L131.33 57.79L126.27 57.79L126.27 59.96L130.89 59.96L130.89 61.86L126.27 61.86L126.27 64.12L131.42 64.12L131.42 66.04L124.06 66.04L124.06 55.88ZM135.76 55.88L144.3 55.88L144.3 57.84L141.13 57.84L141.13 66.04L138.93 66.04L138.93 57.84L135.76 57.84L135.76 55.88Z" fill="#FFFFFF" fill-opacity="1.000000" fill-rule="nonzero"/>
</svg>
