<svg width="304.225220" height="60.000000" viewBox="0 0 304.225 60" fill="none" xmlns="http://www.w3.org/2000/svg" xmlns:xlink="http://www.w3.org/1999/xlink">
	<desc>
			Created with Pixso.
	</desc>
	<defs/>
	<path id="Vector" d="M111.97 18.13L79.37 18.13C78.89 18.13 78.5 17.76 78.5 17.32L78.5 14.38C78.5 13.93 78.89 13.57 79.37 13.57L111.97 13.57C112.45 13.57 112.84 13.93 112.84 14.38L112.84 17.32C112.84 17.76 112.45 18.13 111.97 18.13ZM72.71 36.35L45.54 36.35C42.11 36.35 39.29 33.73 39.29 30.54L39.29 19.38C39.29 16.19 42.11 13.57 45.54 13.57L72.71 13.57C73.19 13.57 73.59 13.94 73.59 14.39L73.59 17.31C73.59 17.76 73.19 18.13 72.71 18.13L46.62 18.12C45.26 18.12 44.15 19.15 44.15 20.42L44.15 29.5C44.15 30.77 45.26 31.8 46.62 31.8L72.71 31.8C73.19 31.8 73.59 32.17 73.59 32.62L73.59 35.53C73.59 35.99 73.19 36.35 72.71 36.35ZM28.09 36.35L4.04 36.35C4.02 36.35 4 36.35 3.98 36.35L0.9 36.35C0.4 36.35 0 35.99 0 35.54L0 14.4C0 13.95 0.4 13.58 0.9 13.58L1.22 13.58L1.23 13.58L28.09 13.58C31.53 13.58 34.34 16.2 34.34 19.39L34.34 20.72C34.34 22.23 33.72 23.66 32.59 24.74L32.37 24.96L32.59 25.19C33.72 26.28 34.34 27.7 34.34 29.21L34.34 30.55C34.34 33.74 31.53 36.35 28.09 36.35ZM4.89 31.81L27.15 31.81C28.51 31.81 29.62 30.93 29.62 29.67L29.62 29.46C29.62 28.2 28.51 27.23 27.15 27.23L4.89 27.23L4.89 31.81ZM4.89 22.69L27.15 22.69C28.51 22.69 29.62 21.74 29.62 20.48L29.62 20.27C29.62 19 28.55 18.12 27.19 18.12L4.89 18.12L4.89 22.69ZM111.97 27.25L83.39 27.25L83.39 31.79L111.97 31.79C112.45 31.79 112.84 32.16 112.84 32.61L112.84 35.54C112.84 35.99 112.45 36.35 111.97 36.35L82.56 36.35C82.53 36.35 82.51 36.35 82.48 36.35L79.4 36.35C79.37 36.35 79.34 36.35 79.31 36.35C78.86 36.32 78.5 35.97 78.5 35.54L78.5 35.54L78.5 32.61L78.5 26.45L78.5 24.28L78.5 23.51C78.5 23.06 78.89 22.69 79.37 22.69L111.97 22.69C112.45 22.69 112.84 23.06 112.84 23.51L112.84 26.45C112.84 26.89 112.45 27.25 111.97 27.25ZM92.85 3.7L98.58 3.7C99.95 3.7 101.07 4.74 101.07 6.01L101.07 9.04L105.06 9.04L105.06 5.5C105.06 2.47 102.4 0 99.14 0L92.3 0C89.04 0 86.37 2.47 86.37 5.5L86.37 9.04L90.36 9.04L90.36 6.01C90.36 4.74 91.49 3.7 92.85 3.7Z" fill="#084067" fill-opacity="1.000000" fill-rule="nonzero"/>
	<path id="Vector" d="M206.99 36.36L185.15 36.36C181.71 36.36 178.9 33.74 178.9 30.55L178.9 19.39C178.9 16.19 181.71 13.58 185.15 13.58L206.99 13.58C210.44 13.58 213.25 16.19 213.25 19.39L213.25 30.55C213.25 33.74 210.44 36.36 206.99 36.36ZM246.32 36.36L219.42 36.36C219.38 36.36 219.35 36.36 219.31 36.35L219.18 36.35C218.68 36.35 218.28 35.99 218.28 35.54L218.28 23.5C218.28 23.05 218.68 22.69 219.18 22.69L222.26 22.69C222.76 22.69 223.17 23.05 223.17 23.5L223.17 31.78L245.17 31.78C246.53 31.78 247.65 30.75 247.65 29.48L247.65 20.44C247.65 19.17 246.53 18.14 245.17 18.14L219.12 18.14C218.64 18.14 218.24 17.77 218.24 17.32L218.24 14.38C218.24 13.93 218.64 13.56 219.12 13.56L246.32 13.56C249.76 13.56 252.58 16.18 252.58 19.38L252.58 30.55C252.58 33.74 249.76 36.36 246.32 36.36ZM289.51 27.15L269.91 27.15L261.31 35.94C261.15 36.2 260.86 36.35 260.54 36.35L256.13 36.35C255.81 36.35 255.53 36.2 255.37 35.95C255.21 35.7 255.12 35.4 255.29 35.15L274.17 15.76C275.12 14.71 276.52 13.73 278.15 13.61L278.15 13.6L278.48 13.6L280.95 13.6L281.27 13.6L281.27 13.61C282.9 13.73 284.3 14.71 285.25 15.76L304.13 35.15C304.29 35.4 304.21 35.7 304.05 35.95C303.89 36.2 303.61 36.35 303.29 36.35L298.88 36.35C298.56 36.35 298.27 36.2 298.11 35.94L289.51 27.15ZM274.16 22.79L285.26 22.79L281.61 19.07C280.97 18.42 280.35 18.03 279.71 17.99C279.07 18.03 278.45 18.42 277.81 19.07L274.16 22.79ZM153.65 36.35L153.33 36.35L150.86 36.35L150.53 36.35L150.53 36.34C148.9 36.22 147.5 35.24 146.55 34.19L127.67 14.8C127.51 14.55 127.59 14.25 127.75 14C127.91 13.75 128.19 13.6 128.51 13.6L132.92 13.6C133.25 13.6 133.53 13.75 133.69 14.01L150.19 30.88C150.83 31.53 151.45 31.92 152.09 31.96C152.74 31.92 153.35 31.53 153.99 30.88L170.49 14.01C170.65 13.75 170.94 13.6 171.26 13.6L175.67 13.6C175.99 13.6 176.27 13.75 176.43 14C176.59 14.25 176.68 14.55 176.52 14.8L157.63 34.19C156.68 35.24 155.28 36.22 153.65 36.34L153.65 36.35ZM186.2 18.07C184.84 18.07 183.73 19.1 183.73 20.36L183.73 29.58C183.73 30.84 184.84 31.87 186.2 31.87L205.95 31.87C207.31 31.87 208.42 30.84 208.42 29.58L208.42 20.36C208.42 19.1 207.31 18.07 205.95 18.07L186.2 18.07Z" fill="#09A4ED" fill-opacity="1.000000" fill-rule="nonzero"/>
	<path id="Vector" d="M85.6 59.23L83.43 59.23L87.44 50.11L89.71 50.11L93.71 59.23L91.53 59.23L90.82 57.52L86.33 57.52L85.6 59.23ZM88.35 52.64L86.99 55.91L90.16 55.91L88.78 52.64C88.69 52.39 88.62 52.16 88.57 51.92C88.52 52.19 88.44 52.43 88.35 52.64ZM107.56 58.81L106.14 60L104.94 58.88C104.19 59.23 103.32 59.41 102.34 59.41C101.5 59.41 100.74 59.28 100.07 59.02C99.4 58.76 98.85 58.41 98.42 57.96C98 57.52 97.68 57.02 97.46 56.45C97.24 55.89 97.13 55.29 97.13 54.67C97.13 54.04 97.24 53.45 97.46 52.89C97.68 52.32 98 51.82 98.42 51.37C98.85 50.93 99.4 50.58 100.07 50.32C100.74 50.06 101.5 49.93 102.34 49.93C103.18 49.93 103.94 50.06 104.61 50.32C105.29 50.58 105.84 50.93 106.26 51.37C106.69 51.82 107.01 52.32 107.23 52.89C107.45 53.45 107.56 54.04 107.56 54.67C107.56 55.88 107.18 56.91 106.42 57.77L107.56 58.81ZM99.27 54.67C99.27 55.51 99.54 56.21 100.07 56.77C100.6 57.32 101.36 57.6 102.34 57.6C102.72 57.6 103.06 57.54 103.38 57.43L102.2 56.34L103.55 55.1L104.9 56.34C105.23 55.87 105.4 55.31 105.4 54.67C105.4 53.83 105.13 53.12 104.6 52.56C104.07 52 103.32 51.71 102.34 51.71C101.36 51.71 100.6 51.99 100.07 52.55C99.54 53.11 99.27 53.82 99.27 54.67ZM118.86 50.11L120.95 50.11L120.95 55.8C120.95 56.32 120.87 56.79 120.71 57.21C120.55 57.63 120.34 57.97 120.07 58.24C119.8 58.51 119.47 58.73 119.1 58.91C118.73 59.1 118.34 59.22 117.93 59.3C117.52 59.37 117.09 59.41 116.65 59.41C116.2 59.41 115.77 59.37 115.36 59.3C114.96 59.22 114.57 59.1 114.19 58.91C113.82 58.73 113.49 58.51 113.22 58.24C112.95 57.97 112.74 57.63 112.58 57.21C112.42 56.79 112.34 56.32 112.34 55.8L112.34 50.11L114.44 50.11L114.44 55.7C114.44 57 115.18 57.65 116.65 57.65C118.12 57.65 118.86 57 118.86 55.7L118.86 50.11ZM127.08 59.23L124.9 59.23L128.91 50.11L131.19 50.11L135.18 59.23L133.01 59.23L132.29 57.52L127.81 57.52L127.08 59.23ZM129.83 52.64L128.47 55.91L131.63 55.91L130.26 52.64C130.17 52.39 130.1 52.16 130.05 51.92C129.99 52.19 129.92 52.43 129.83 52.64ZM154.08 50.11L156.03 50.11L156.03 59.23L153.93 59.23L153.93 53.61L151.34 57.27L150.12 57.27L147.52 53.6L147.52 59.23L145.42 59.23L145.42 50.11L147.37 50.11L150.73 54.85L154.08 50.11ZM162.62 59.23L160.45 59.23L164.46 50.11L166.73 50.11L170.73 59.23L168.55 59.23L167.84 57.52L163.35 57.52L162.62 59.23ZM165.37 52.64L164.01 55.91L167.18 55.91L165.81 52.64C165.71 52.39 165.64 52.16 165.6 51.92C165.54 52.19 165.46 52.43 165.37 52.64ZM177.25 59.23L175.14 59.23L175.14 50.11L179.18 50.11C179.7 50.11 180.17 50.16 180.61 50.25C181.04 50.35 181.45 50.51 181.84 50.72C182.23 50.94 182.53 51.25 182.75 51.65C182.97 52.05 183.08 52.52 183.08 53.08C183.08 54.46 182.37 55.36 180.93 55.79L183.87 59.23L181.44 59.23L178.79 56.04L177.25 56.04L177.25 59.23ZM177.25 51.83L177.25 54.41L179.28 54.41C179.76 54.41 180.15 54.3 180.47 54.09C180.78 53.88 180.93 53.55 180.93 53.12C180.93 52.68 180.78 52.35 180.47 52.14C180.16 51.93 179.77 51.83 179.28 51.83L177.25 51.83ZM190.47 59.23L188.37 59.23L188.37 50.11L190.47 50.11L190.47 53.73L192.05 53.73L194.54 50.11L196.88 50.11L193.69 54.55L197.06 59.23L194.73 59.23L192.05 55.5L190.47 55.5L190.47 59.23ZM201.38 50.11L208.29 50.11L208.29 51.83L203.48 51.83L203.48 53.77L207.87 53.77L207.87 55.48L203.48 55.48L203.48 57.51L208.38 57.51L208.38 59.23L201.38 59.23L201.38 50.11ZM212.5 50.11L220.62 50.11L220.62 51.87L217.6 51.87L217.6 59.23L215.51 59.23L215.51 51.87L212.5 51.87L212.5 50.11Z" fill="#084067" fill-opacity="1.000000" fill-rule="nonzero"/>
</svg>
